<?xml version="1.0" encoding="iso-8859-1"?>
<!-- Generator: Adobe Illustrator 16.0.0, SVG Export Plug-In . SVG Version: 6.00 Build 0)  -->
<!DOCTYPE svg PUBLIC "-//W3C//DTD SVG 1.1//EN" "http://www.w3.org/Graphics/SVG/1.1/DTD/svg11.dtd">
<svg version="1.1" id="Capa_1" xmlns="http://www.w3.org/2000/svg" xmlns:xlink="http://www.w3.org/1999/xlink" x="0px" y="0px"
	 width="29.433px" height="29.434px" viewBox="0 0 29.433 29.434" style="enable-background:new 0 0 29.433 29.434;"
	 xml:space="preserve">
<g>
	<g>
		<path d="M27.608,19.42c-0.136-0.886-0.599-1.597-1.3-2.002c-0.391-0.225-0.822-0.339-1.284-0.339c-0.17,0-0.338,0.019-0.504,0.048
			c0.013-0.338,0.021-0.677,0.021-1.017H1.787c0,5.239,1.304,10.448,7.252,12.046v1.277h8.249v-1.271
			c2.901-0.776,4.705-2.411,5.779-4.501c0.312,0.131,0.638,0.217,0.989,0.217c1.185,0,2.348-0.738,3.033-1.928
			C27.55,21.154,27.735,20.256,27.608,19.42z M26.07,21.362c-0.469,0.813-1.258,1.338-2.014,1.338c-0.185,0-0.354-0.043-0.514-0.106
			c0.5-1.312,0.778-2.75,0.904-4.237c0.191-0.063,0.385-0.099,0.576-0.099c0.253,0,0.486,0.061,0.693,0.181
			c0.388,0.223,0.646,0.634,0.725,1.159C26.53,20.17,26.397,20.797,26.07,21.362z"/>
		<path d="M13.665,9.628c0,0,3.365-2.548,2.875-4.062c-0.529-1.625-2.875-0.433-2.875-0.433s-2.348-1.192-2.874,0.433
			C10.3,7.08,13.665,9.628,13.665,9.628z"/>
		<path d="M7.187,6.423c0,0,2.587-1.959,2.21-3.124c-0.406-1.25-2.21-0.333-2.21-0.333S5.38,2.049,4.975,3.299
			C4.598,4.463,7.187,6.423,7.187,6.423z"/>
		<path d="M18.933,5.357c0,0,1.859-1.408,1.589-2.245c-0.292-0.897-1.589-0.238-1.589-0.238s-1.297-0.659-1.588,0.238
			C17.074,3.949,18.933,5.357,18.933,5.357z"/>
		<path d="M13.665,13.311c0,0-0.675-0.343-0.827,0.125c-0.143,0.437,0.827,1.169,0.827,1.169s0.97-0.733,0.827-1.169
			C14.341,12.968,13.665,13.311,13.665,13.311z"/>
		<path d="M21.388,8.585c0,0,0.97-0.733,0.83-1.169c-0.152-0.467-0.83-0.125-0.83-0.125s-0.674-0.343-0.825,0.125
			C20.421,7.852,21.388,8.585,21.388,8.585z"/>
		<path d="M4.938,10.637c0,0,0.97-0.733,0.828-1.169C5.614,9.001,4.938,9.344,4.938,9.344S4.263,9.001,4.111,9.468
			C3.969,9.904,4.938,10.637,4.938,10.637z"/>
		<path d="M13.665,2.111c0,0,1.444-1.094,1.233-1.744c-0.226-0.698-1.233-0.186-1.233-0.186s-1.007-0.512-1.232,0.186
			C12.222,1.017,13.665,2.111,13.665,2.111z"/>
		<path d="M8.025,9.753c-0.307,0.942,1.785,2.526,1.785,2.526s2.095-1.584,1.789-2.526C11.272,8.743,9.81,9.484,9.81,9.484
			S8.352,8.743,8.025,9.753z"/>
		<path d="M17.679,9.954c0,0-1.813-0.921-2.222,0.334c-0.379,1.17,2.222,3.139,2.222,3.139s2.602-1.969,2.222-3.139
			C19.492,9.033,17.679,9.954,17.679,9.954z"/>
	</g>
</g>
<g>
</g>
<g>
</g>
<g>
</g>
<g>
</g>
<g>
</g>
<g>
</g>
<g>
</g>
<g>
</g>
<g>
</g>
<g>
</g>
<g>
</g>
<g>
</g>
<g>
</g>
<g>
</g>
<g>
</g>
</svg>
