<svg version="1.1" id="Uploaded to svgrepo.com" xmlns="http://www.w3.org/2000/svg" xmlns:xlink="http://www.w3.org/1999/xlink" x="0px" y="0px"
	 width="32px" height="32px" viewBox="0 0 32 32" style="enable-background:new 0 0 32 32;" xml:space="preserve">
<style type="text/css">
	.stone_een{fill:#0B1719;}
	.st0{fill:#0B1719;}
</style>
<path class="stone_een" d="M9,10c0,0.551-0.449,1-1,1s-1-0.449-1-1s0.449-1,1-1S9,9.449,9,10z M30,12c0,6.11-6.453,11.299-10.597,14
	c-1.285,0.837-2.348,1.437-2.928,1.75c-0.299,0.161-0.652,0.161-0.951,0c-0.58-0.313-1.644-0.912-2.929-1.75
	C8.452,23.298,2,18.11,2,12c0-4.418,3.582-8,8-8c2.393,0,4.534,1.056,6,2.721C17.466,5.056,19.607,4,22,4C26.418,4,30,7.582,30,12z
	 M10,10c0-1.105-0.895-2-2-2c-1.105,0-2,0.895-2,2s0.895,2,2,2C9.105,12,10,11.104,10,10z"/>
</svg>