<?xml version="1.0" encoding="iso-8859-1"?>
<!-- Generator: Adobe Illustrator 19.0.0, SVG Export Plug-In . SVG Version: 6.00 Build 0)  -->
<svg version="1.1" id="Layer_1" xmlns="http://www.w3.org/2000/svg" xmlns:xlink="http://www.w3.org/1999/xlink" x="0px" y="0px"
	 viewBox="0 0 297.085 297.085" style="enable-background:new 0 0 297.085 297.085;" xml:space="preserve">
<g>
	<g>
		<g>
			<path d="M92.191,94.479c27.19,0,48.49-14.624,48.49-33.292c0-18.671-21.3-33.297-48.49-33.297s-48.49,14.625-48.49,33.297
				C43.701,79.855,65.001,94.479,92.191,94.479z M92.191,42.889c17.841,0,33.49,8.55,33.49,18.297
				c0,10.78-17.649,18.292-33.49,18.292c-19.736,0-33.49-9.641-33.49-18.292C58.701,51.439,74.351,42.889,92.191,42.889z"/>
			<path d="M184.384,114.58c0.003-4.395,0.002-3.56-0.005-53.235c0-0.052,0.003-0.104,0.003-0.156c0-34.776-42.272-60.8-92.19-60.8
				c-49.91,0-92.118,26.001-92.188,60.715c0,0.03-0.004,0.059-0.004,0.09c0,6.757,0,165.999,0,174.7
				c0,54.355,97.154,79.21,153.876,45.362c60.097,40.099,143.209-2.281,143.209-76.763
				C297.084,143.988,240.623,101.52,184.384,114.58z M92.191,15.389c41.826,0,77.162,20.958,77.189,45.772
				c0,0.011-0.002,0.022-0.002,0.033c0,0.071-0.006,0.139-0.007,0.21c-0.204,24.729-35.468,45.575-77.181,45.575
				c-41.841,0-77.189-20.969-77.189-45.789C15.002,36.363,50.351,15.389,92.191,15.389z M14.999,94.702
				c19.105,19.158,49.821,27.277,77.192,27.277c27.1,0,58.017-8.052,77.191-27.275c0.002,4.337,0.007,20.393-0.004,24.698
				c-21.378,8.913-37.929,25.42-47.329,44.645c-50.421,12.89-107.05-10.123-107.05-42.153V94.702z M14.999,155.716
				c25.141,24.246,66.848,30.805,100.843,24.986c-3.837,14.511-4.312,30.073-0.543,45.545c-42.811,8.145-96.956-9.49-100.145-40.88
				C14.94,183.269,14.999,185.322,14.999,155.716z M14.999,235.894v-19.73c24.953,24.869,70.107,31.685,105.063,24.445
				c4.948,11.646,12.347,22.149,21.126,30.521C92.218,295.792,14.999,274.319,14.999,235.894z M158.606,266.254
				c-49.647-37.26-36.844-114.353,20.651-134.586c0.005-0.002,0.009-0.005,0.014-0.006c0.032-0.011,0.065-0.021,0.097-0.033
				c49.961-17.542,102.715,19.428,102.715,72.864C282.084,269.141,208.365,303.639,158.606,266.254z"/>
			<path d="M204.904,143.293c-33.74,0-61.195,27.449-61.195,61.201c0,33.74,27.45,61.19,61.191,61.19
				c33.745,0,61.205-27.445,61.205-61.191C266.104,170.747,238.65,143.293,204.904,143.293z M204.904,250.683
				c-25.47,0-46.191-20.721-46.191-46.19c0-25.478,20.724-46.199,46.186-46.199c25.475,0,46.199,20.725,46.199,46.2
				C251.099,229.958,230.379,250.683,204.904,250.683z"/>
			<path d="M208.691,200.072v-12.129c2.147,0.505,4.295,1.453,6.506,2.779c4.159,2.494,7.797-3.543,3.538-5.938
				c-2.906-1.832-6.064-3.032-9.792-3.475v-1.39c0-1.516-1.2-2.716-2.716-2.716c-1.517,0-2.78,1.2-2.78,2.716v1.327
				c-7.896,0.632-13.266,5.306-13.266,12.066c0,7.138,4.296,10.612,13.519,13.013v12.445c-3.475-0.632-6.38-2.085-9.35-4.232
				c-2.101-1.635-5.559-0.281-5.559,2.779c0,1.327,0.632,2.337,1.706,3.032c3.853,2.716,8.212,4.422,12.949,4.927v3.916
				c0,3.54,5.496,3.648,5.496,0v-3.79c8.023-0.758,13.456-5.37,13.456-12.318C222.399,206.326,218.293,202.472,208.691,200.072z
				 M203.7,198.745c-4.864-1.58-6.064-3.222-6.064-5.875c0-2.78,2.021-4.927,6.064-5.307V198.745z M208.691,219.023v-11.497
				c4.863,1.516,6.254,3.222,6.254,6.001C214.945,216.56,212.734,218.581,208.691,219.023z"/>
		</g>
	</g>
</g>
<g>
</g>
<g>
</g>
<g>
</g>
<g>
</g>
<g>
</g>
<g>
</g>
<g>
</g>
<g>
</g>
<g>
</g>
<g>
</g>
<g>
</g>
<g>
</g>
<g>
</g>
<g>
</g>
<g>
</g>
</svg>
